<?xml version="1.0" encoding="UTF-8" standalone="no"?>
<svg
   height="16px"
   viewBox="0 0 16 16"
   width="16px"
   version="1.1"
   id="svg2"
   sodipodi:docname="arrowheadStart.svg"
   inkscape:version="1.4 (86a8ad7, 2024-10-11)"
   xmlns:inkscape="http://www.inkscape.org/namespaces/inkscape"
   xmlns:sodipodi="http://sodipodi.sourceforge.net/DTD/sodipodi-0.dtd"
   xmlns="http://www.w3.org/2000/svg"
   xmlns:svg="http://www.w3.org/2000/svg">
  <defs
     id="defs2" />
  <sodipodi:namedview
     id="namedview2"
     pagecolor="#ffffff"
     bordercolor="#000000"
     borderopacity="0.25"
     inkscape:showpageshadow="2"
     inkscape:pageopacity="0.0"
     inkscape:pagecheckerboard="0"
     inkscape:deskcolor="#d1d1d1"
     inkscape:zoom="48.5625"
     inkscape:cx="8.010296"
     inkscape:cy="8.0617761"
     inkscape:window-width="1920"
     inkscape:window-height="1051"
     inkscape:window-x="-9"
     inkscape:window-y="-9"
     inkscape:window-maximized="1"
     inkscape:current-layer="svg2" />
  <path
     style="fill:none;stroke:#2b11ff;stroke-width:0;stroke-dasharray:none"
     d="m 11.667942,10.854491 c 0.128887,-0.09923 0.196095,-0.257871 0.30888,-0.370656 0.0175,-0.0175 0.04428,-0.02368 0.06178,-0.04118 0.04658,-0.04658 0.116765,-0.13057 0.144145,-0.185329 0.02021,-0.04041 0.05463,-0.105309 0.08237,-0.144144 0.01693,-0.0237 0.04282,-0.03966 0.06178,-0.06178 0.05951,-0.069432 0.120563,-0.1675926 0.164736,-0.247104 0.0747,-0.1344642 0.119511,-0.2822277 0.20592,-0.4118404 0.04423,-0.066345 0.176372,-0.2900853 0.144144,-0.3706564 -0.0057,-0.014251 -0.02746,-0.013728 -0.04118,-0.020592"
     id="path1" />
  <path
     style="fill:none;stroke:#2b11ff;stroke-width:0;stroke-dasharray:none"
     d="m 12.203335,8.774697 c -0.523917,0.074845 -0.434138,0.067727 -1.029601,0.1235521 -0.0205,0.00192 -0.04224,-0.00651 -0.06178,0 -0.0065,0.00217 0,0.013728 0,0.020592"
     id="path2" />
  <path
     style="fill:#fff611;fill-opacity:1;stroke:#f9ed2a;stroke-width:1.43051;stroke-linecap:round;stroke-dasharray:1.43051, 2.86101;stroke-dashoffset:0;stroke-opacity:1"
     d="M 2.6470824,2.2504204 15.221257,15.195251"
     id="path7" />
  <path
     style="fill:#1be000;fill-opacity:1;stroke:#2b11ff;stroke-width:0;stroke-dasharray:none"
     d="m -0.00602164,-0.03156162 1.23586704,7.35714702 1.09091,-5.237449 6.0019512,-1.08179 z"
     id="path3" />
</svg>
